<svg width="32" height="32" viewBox="0 0 100 100" xmlns="http://www.w3.org/2000/svg" fill="#48D1CC">
  <style>
    .pen { fill: hsl(var(--primary)); }
    .nib { fill: hsl(var(--foreground)); }
    .text {
      font-family: 'Playfair Display', serif;
      font-weight: 700;
      font-size: 40px;
      fill: hsl(var(--foreground));
    }
  </style>
  <path class="pen" d="M85.3,1.3c-2.8-1.8-6.5-1.4-8.8,1.3L42,44.1l-5.6,1.9c-2.4,0.8-4.5,2.4-5.9,4.5l-5.4,8.1L2,85.1c-1.3,1.9-0.7,4.5,1.2,5.8 c1.9,1.3,4.5,0.7,5.8-1.2l23.5-35.2l8.1-5.4c2.1-1.4,4.2-2.7,6.3-3.2l2.3-0.6l41.5-41.5C95.1,7.2,95.5,3.1,85.3,1.3z"/>
  <path class="nib" d="M21.9,64.4l-1.2-1.8l-5.6,3.7l1.2,1.8L21.9,64.4z"/>
  <text x="10" y="90" class="text">MP</text>
</svg>